# File created by Blade
# Date/Time:  Thu Jan 22 16:25:48 2015
# Frame Rate: 120.000 fps
#------------------------------------------------------
:FULLY-SPECIFIED
:DEGREES
462
root -0.396593 39.695584 7.302921 59.998440 14.430989 46.278820
RightUpLeg -34.450969 -23.485193 -35.930180
RightLeg -5.945993 -0.000000 0.000000
RightFoot -5.349992 -30.977720 9.954874
RightToeBase 7.570156 -0.000000 -0.000000
LeftUpLeg 12.296003 -27.506891 9.279113
LeftLeg 132.363017 -0.000000 -0.000000
LeftFoot 17.316002 16.527628 -30.037538
LeftToeBase 4.216395 -0.000000 -0.000000
Spine 16.174319 -3.142268 -14.177118
RightShoulder -10.025909 3.232618 -50.964473
RightArm 20.789145 47.084664 18.163436
RightForeArm 5.577317 -0.000000 16.149533
RightHand 7.535044 0.000000 -16.817991
RightHandThumb1 -24.326973 -0.000000 -32.862282
LeftShoulder -34.825022 34.326516 -14.900982
LeftArm 25.988743 -21.699563 -76.594496
LeftForeArm 52.654800 -0.000000 12.332114
LeftHand -14.216127 -0.000000 -17.615618
LeftHandThumb1 -26.253704 0.000000 33.147579
Head -16.005612 -22.394340 -15.022564
463
root -0.379583 39.699967 7.293329 60.063972 14.328204 46.360218
RightUpLeg -34.474813 -23.487237 -36.120076
RightLeg -5.919431 -0.000000 0.000000
RightFoot -5.363474 -31.075459 9.940166
RightToeBase 7.547227 -0.000000 -0.000000
LeftUpLeg 12.280714 -27.527747 9.125525
LeftLeg 132.464574 -0.000000 -0.000000
LeftFoot 17.301954 16.570351 -30.072625
LeftToeBase 4.179767 -0.000000 -0.000000
Spine 16.304512 -3.211757 -14.174339
RightShoulder -10.149832 3.347436 -51.118023
RightArm 20.901528 47.373558 18.126899
RightForeArm 5.597292 -0.000000 16.129997
RightHand 7.490098 -0.000000 -16.924431
RightHandThumb1 -24.326973 -0.000000 -32.862282
LeftShoulder -34.900791 34.283397 -14.975782
LeftArm 26.099375 -21.654035 -76.688268
LeftForeArm 52.639070 -0.000000 12.328923
LeftHand -14.278970 -0.000000 -17.511375
LeftHandThumb1 -26.253704 0.000000 33.147579
Head -16.204407 -22.444157 -15.089958
464
root -0.360926 39.705293 7.283734 60.113394 14.242499 46.453952
RightUpLeg -34.470121 -23.513134 -36.301320
RightLeg -5.888584 -0.000000 0.000000
RightFoot -5.364822 -31.132214 9.908506
RightToeBase 7.534294 -0.000000 -0.000000
LeftUpLeg 12.274516 -27.554951 8.975882
LeftLeg 132.577615 -0.000000 -0.000000
LeftFoot 17.259097 16.650428 -30.085564
LeftToeBase 4.167429 -0.000000 -0.000000
Spine 16.463087 -3.321871 -14.156391
RightShoulder -10.262175 3.492188 -51.312530
RightArm 21.002093 47.637964 18.124118
RightForeArm 5.605853 0.000000 16.148414
RightHand 7.486928 -0.000000 -17.113388
RightHandThumb1 -24.326973 -0.000000 -32.862282
LeftShoulder -34.957239 34.240206 -15.067149
LeftArm 26.212668 -21.651586 -76.789513
LeftForeArm 52.722926 -0.000000 12.312879
LeftHand -14.300381 -0.000000 -17.584415
LeftHandThumb1 -26.253704 0.000000 33.147579
Head -16.381101 -22.457468 -15.189248
465
root -0.344184 39.708656 7.275471 60.143426 14.165009 46.518969
RightUpLeg -34.478755 -23.516385 -36.450582
RightLeg -5.843575 -0.000000 0.000000
RightFoot -5.388915 -31.208494 9.863351
RightToeBase 7.539527 -0.000000 -0.000000
LeftUpLeg 12.297407 -27.594584 8.831651
LeftLeg 132.695002 -0.000000 -0.000000
LeftFoot 17.254076 16.649581 -30.040472
LeftToeBase 4.164289 -0.000000 -0.000000
Spine 16.621091 -3.392806 -14.123151
RightShoulder -10.331975 3.551345 -51.463465
RightArm 20.999356 47.871229 17.982194
RightForeArm 5.798053 -0.000000 16.170686
RightHand 7.616343 0.000000 -17.140556
RightHandThumb1 -24.326973 -0.000000 -32.862282
LeftShoulder -34.903822 34.156404 -15.047059
LeftArm 26.179829 -21.698331 -76.918101
LeftForeArm 52.822354 -0.000000 12.386670
LeftHand -14.353535 -0.000000 -17.636774
LeftHandThumb1 -26.253704 0.000000 33.147579
Head -16.499918 -22.510142 -15.274540
466
root -0.326597 39.711303 7.266540 60.175770 14.101867 46.574081
RightUpLeg -34.506893 -23.525592 -36.578688
RightLeg -5.768768 -0.000000 0.000000
RightFoot -5.432867 -31.263005 9.836232
RightToeBase 7.534866 -0.000000 -0.000000
LeftUpLeg 12.317798 -27.634958 8.704272
LeftLeg 132.824479 -0.000000 -0.000000
LeftFoot 17.264255 16.633295 -30.015389
LeftToeBase 4.063799 -0.000000 -0.000000
Spine 16.759358 -3.461942 -14.061470
RightShoulder -10.428559 3.606594 -51.647688
RightArm 21.123606 48.135575 17.990207
RightForeArm 5.758211 -0.000000 16.182860
RightHand 7.453951 0.000000 -17.374163
RightHandThumb1 -24.326973 -0.000000 -32.862282
LeftShoulder -34.962549 34.189317 -15.134541
LeftArm 26.339068 -21.606714 -77.032988
LeftForeArm 52.808408 0.000000 12.371032
LeftHand -14.345648 -0.000000 -17.621171
LeftHandThumb1 -26.253704 0.000000 33.147579
Head -16.587566 -22.511271 -15.376023
